<?xml version="1.0" encoding="utf-8" standalone="no"?>
<!DOCTYPE svg PUBLIC "-//W3C//DTD SVG 1.1//EN"
  "http://www.w3.org/Graphics/SVG/1.1/DTD/svg11.dtd">
<!-- Created with matplotlib (http://matplotlib.org/) -->
<svg height="345.6pt" version="1.1" viewBox="0 0 460.8 345.6" width="460.8pt" xmlns="http://www.w3.org/2000/svg" xmlns:xlink="http://www.w3.org/1999/xlink">
 <defs>
  <style type="text/css">
*{stroke-linecap:butt;stroke-linejoin:round;}
  </style>
 </defs>
 <g id="figure_1">
  <g id="patch_1">
   <path d="M 0 345.6 
L 460.8 345.6 
L 460.8 0 
L 0 0 
z
" style="fill:#ffffff;"/>
  </g>
  <g id="axes_1">
   <g id="patch_2">
    <path d="M 57.6 307.584 
L 414.72 307.584 
L 414.72 41.472 
L 57.6 41.472 
z
" style="fill:#ffffff;"/>
   </g>
   <g id="matplotlib.axis_1">
    <g id="xtick_1">
     <g id="line2d_1">
      <defs>
       <path d="M 0 0 
L 0 3.5 
" id="md8e819e30c" style="stroke:#000000;stroke-width:0.8;"/>
      </defs>
      <g>
       <use style="stroke:#000000;stroke-width:0.8;" x="57.6" xlink:href="#md8e819e30c" y="307.584"/>
      </g>
     </g>
     <g id="text_1">
      <text style="font-family:DejaVu Sans;font-size:10px;font-style:normal;font-weight:normal;text-anchor:middle;" transform="rotate(-0, 57.6, 322.182437)" x="57.6" y="322.182437">0.0</text>
     </g>
    </g>
    <g id="xtick_2">
     <g id="line2d_2">
      <g>
       <use style="stroke:#000000;stroke-width:0.8;" x="119.68731" xlink:href="#md8e819e30c" y="307.584"/>
      </g>
     </g>
     <g id="text_2">
      <text style="font-family:DejaVu Sans;font-size:10px;font-style:normal;font-weight:normal;text-anchor:middle;" transform="rotate(-0, 119.68731, 322.182437)" x="119.68731" y="322.182437">0.5</text>
     </g>
    </g>
    <g id="xtick_3">
     <g id="line2d_3">
      <g>
       <use style="stroke:#000000;stroke-width:0.8;" x="181.774621" xlink:href="#md8e819e30c" y="307.584"/>
      </g>
     </g>
     <g id="text_3">
      <text style="font-family:DejaVu Sans;font-size:10px;font-style:normal;font-weight:normal;text-anchor:middle;" transform="rotate(-0, 181.774621, 322.182437)" x="181.774621" y="322.182437">1.0</text>
     </g>
    </g>
    <g id="xtick_4">
     <g id="line2d_4">
      <g>
       <use style="stroke:#000000;stroke-width:0.8;" x="243.861931" xlink:href="#md8e819e30c" y="307.584"/>
      </g>
     </g>
     <g id="text_4">
      <text style="font-family:DejaVu Sans;font-size:10px;font-style:normal;font-weight:normal;text-anchor:middle;" transform="rotate(-0, 243.861931, 322.182437)" x="243.861931" y="322.182437">1.5</text>
     </g>
    </g>
    <g id="xtick_5">
     <g id="line2d_5">
      <g>
       <use style="stroke:#000000;stroke-width:0.8;" x="305.949241" xlink:href="#md8e819e30c" y="307.584"/>
      </g>
     </g>
     <g id="text_5">
      <text style="font-family:DejaVu Sans;font-size:10px;font-style:normal;font-weight:normal;text-anchor:middle;" transform="rotate(-0, 305.949241, 322.182437)" x="305.949241" y="322.182437">2.0</text>
     </g>
    </g>
    <g id="xtick_6">
     <g id="line2d_6">
      <g>
       <use style="stroke:#000000;stroke-width:0.8;" x="368.036551" xlink:href="#md8e819e30c" y="307.584"/>
      </g>
     </g>
     <g id="text_6">
      <text style="font-family:DejaVu Sans;font-size:10px;font-style:normal;font-weight:normal;text-anchor:middle;" transform="rotate(-0, 368.036551, 322.182437)" x="368.036551" y="322.182437">2.5</text>
     </g>
    </g>
    <g id="text_7">
     <text style="font-family:DejaVu Sans;font-size:10px;font-style:normal;font-weight:normal;text-anchor:middle;" transform="rotate(-0, 236.16, 335.860562)" x="236.16" y="335.860562">n</text>
    </g>
    <g id="text_8">
     <text style="font-family:DejaVu Sans;font-size:10px;font-style:normal;font-weight:normal;text-anchor:end;" transform="rotate(-0, 414.72, 334.860562)" x="414.72" y="334.860562">1e7</text>
    </g>
   </g>
   <g id="matplotlib.axis_2">
    <g id="ytick_1">
     <g id="line2d_7">
      <defs>
       <path d="M 0 0 
L -3.5 0 
" id="m2bcca1b938" style="stroke:#000000;stroke-width:0.8;"/>
      </defs>
      <g>
       <use style="stroke:#000000;stroke-width:0.8;" x="57.6" xlink:href="#m2bcca1b938" y="307.584"/>
      </g>
     </g>
     <g id="text_9">
      <text style="font-family:DejaVu Sans;font-size:10px;font-style:normal;font-weight:normal;text-anchor:end;" transform="rotate(-0, 50.6, 311.383219)" x="50.6" y="311.383219">0</text>
     </g>
    </g>
    <g id="ytick_2">
     <g id="line2d_8">
      <g>
       <use style="stroke:#000000;stroke-width:0.8;" x="57.6" xlink:href="#m2bcca1b938" y="271.200099"/>
      </g>
     </g>
     <g id="text_10">
      <text style="font-family:DejaVu Sans;font-size:10px;font-style:normal;font-weight:normal;text-anchor:end;" transform="rotate(-0, 50.6, 274.999317)" x="50.6" y="274.999317">200000</text>
     </g>
    </g>
    <g id="ytick_3">
     <g id="line2d_9">
      <g>
       <use style="stroke:#000000;stroke-width:0.8;" x="57.6" xlink:href="#m2bcca1b938" y="234.816197"/>
      </g>
     </g>
     <g id="text_11">
      <text style="font-family:DejaVu Sans;font-size:10px;font-style:normal;font-weight:normal;text-anchor:end;" transform="rotate(-0, 50.6, 238.615416)" x="50.6" y="238.615416">400000</text>
     </g>
    </g>
    <g id="ytick_4">
     <g id="line2d_10">
      <g>
       <use style="stroke:#000000;stroke-width:0.8;" x="57.6" xlink:href="#m2bcca1b938" y="198.432296"/>
      </g>
     </g>
     <g id="text_12">
      <text style="font-family:DejaVu Sans;font-size:10px;font-style:normal;font-weight:normal;text-anchor:end;" transform="rotate(-0, 50.6, 202.231515)" x="50.6" y="202.231515">600000</text>
     </g>
    </g>
    <g id="ytick_5">
     <g id="line2d_11">
      <g>
       <use style="stroke:#000000;stroke-width:0.8;" x="57.6" xlink:href="#m2bcca1b938" y="162.048395"/>
      </g>
     </g>
     <g id="text_13">
      <text style="font-family:DejaVu Sans;font-size:10px;font-style:normal;font-weight:normal;text-anchor:end;" transform="rotate(-0, 50.6, 165.847613)" x="50.6" y="165.847613">800000</text>
     </g>
    </g>
    <g id="ytick_6">
     <g id="line2d_12">
      <g>
       <use style="stroke:#000000;stroke-width:0.8;" x="57.6" xlink:href="#m2bcca1b938" y="125.664493"/>
      </g>
     </g>
     <g id="text_14">
      <text style="font-family:DejaVu Sans;font-size:10px;font-style:normal;font-weight:normal;text-anchor:end;" transform="rotate(-0, 50.6, 129.463712)" x="50.6" y="129.463712">1000000</text>
     </g>
    </g>
    <g id="ytick_7">
     <g id="line2d_13">
      <g>
       <use style="stroke:#000000;stroke-width:0.8;" x="57.6" xlink:href="#m2bcca1b938" y="89.280592"/>
      </g>
     </g>
     <g id="text_15">
      <text style="font-family:DejaVu Sans;font-size:10px;font-style:normal;font-weight:normal;text-anchor:end;" transform="rotate(-0, 50.6, 93.079811)" x="50.6" y="93.079811">1200000</text>
     </g>
    </g>
    <g id="ytick_8">
     <g id="line2d_14">
      <g>
       <use style="stroke:#000000;stroke-width:0.8;" x="57.6" xlink:href="#m2bcca1b938" y="52.896691"/>
      </g>
     </g>
     <g id="text_16">
      <text style="font-family:DejaVu Sans;font-size:10px;font-style:normal;font-weight:normal;text-anchor:end;" transform="rotate(-0, 50.6, 56.695909)" x="50.6" y="56.695909">1400000</text>
     </g>
    </g>
    <g id="text_17">
     <text style="font-family:DejaVu Sans;font-size:10px;font-style:normal;font-weight:normal;text-anchor:middle;" transform="rotate(-90, -0.017188, 174.528)" x="-0.017188" y="174.528">peak memory in KB</text>
    </g>
   </g>
   <g id="line2d_15">
    <path clip-path="url(#p30da35e07d)" d="M 57.6 301.225549 
L 58.096698 300.748193 
L 58.220873 300.834786 
L 58.345048 300.449117 
L 58.469222 300.605568 
L 58.841746 300.509514 
L 58.965921 299.923733 
L 60.083492 299.783292 
L 60.207667 298.279909 
L 60.704366 298.224605 
L 60.82854 298.129279 
L 60.952715 299.299386 
L 61.201064 299.113828 
L 62.566985 298.63356 
L 62.691159 296.107062 
L 64.05708 295.950611 
L 64.181255 295.205469 
L 65.298826 295.109416 
L 65.67135 295.061389 
L 66.664747 294.965335 
L 67.161446 294.869282 
L 67.53397 294.821255 
L 67.658144 290.853227 
L 69.769113 290.51995 
L 70.141637 290.429718 
L 70.514161 290.282727 
L 70.638335 292.862346 
L 71.010859 292.728453 
L 71.880081 292.433016 
L 72.252605 292.300578 
L 73.121828 292.005141 
L 73.494351 291.871248 
L 74.487748 291.548159 
L 74.984447 291.338588 
L 76.102018 290.986392 
L 76.598717 290.776821 
L 77.592114 290.453732 
L 77.716289 284.231357 
L 78.585511 283.912634 
L 78.958035 283.768554 
L 79.827257 283.448375 
L 80.199781 283.30575 
L 81.193178 282.953554 
L 81.689876 282.727974 
L 82.807448 282.345215 
L 83.179972 282.201135 
L 83.552496 282.057055 
L 83.67667 280.257507 
L 85.53929 279.948244 
L 85.911813 279.857284 
L 88.022782 279.519642 
L 88.395306 279.429409 
L 90.506274 279.091767 
L 90.878798 279.000807 
L 92.989767 278.663164 
L 93.362291 278.572205 
L 95.597434 278.220736 
L 95.969958 278.129777 
L 97.584228 277.89692 
L 97.708402 260.006955 
L 109.629166 258.559604 
L 109.753341 270.311604 
L 110.995087 269.931756 
L 111.491785 269.722185 
L 112.609357 269.369988 
L 113.106055 269.160417 
L 114.347802 268.780569 
L 114.8445 268.570998 
L 115.962072 268.218802 
L 116.45877 268.009231 
L 117.700516 267.627927 
L 118.197215 267.418356 
L 119.314786 267.06616 
L 119.811485 266.856589 
L 121.053231 266.476741 
L 121.54993 266.267169 
L 122.667501 265.914973 
L 123.040025 265.782536 
L 123.909247 265.487098 
L 124.281771 265.353206 
L 125.150994 265.057768 
L 125.523517 264.925331 
L 126.516914 264.602242 
L 127.013613 264.392671 
L 128.131184 264.040475 
L 128.627883 263.830903 
L 129.869629 263.4496 
L 130.366328 263.240029 
L 131.483899 262.887833 
L 131.980598 262.678261 
L 133.222344 262.298413 
L 133.719042 262.088842 
L 134.836614 261.736646 
L 135.209138 261.602753 
L 136.07836 261.308771 
L 136.450884 261.174878 
L 137.320106 260.879441 
L 137.69263 260.747004 
L 137.816805 224.952522 
L 138.313503 224.74295 
L 139.431075 224.390754 
L 139.803599 224.258317 
L 140.672821 223.96288 
L 141.045345 223.828987 
L 142.038742 223.505898 
L 142.53544 223.296326 
L 143.653012 222.94413 
L 144.149711 222.734559 
L 145.391457 222.354711 
L 145.888155 222.14514 
L 147.005727 221.792944 
L 147.378251 221.659051 
L 148.247473 221.365069 
L 148.619997 221.231176 
L 149.489219 220.935739 
L 149.861743 220.803302 
L 150.85514 220.480212 
L 151.351839 220.269186 
L 152.46941 219.918445 
L 152.966109 219.707418 
L 154.207855 219.32757 
L 154.704553 219.117999 
L 155.822125 218.765803 
L 156.318823 218.556232 
L 157.56057 218.176384 
L 158.057268 217.966813 
L 159.17484 217.614616 
L 159.547363 217.480724 
L 160.416586 217.186742 
L 160.78911 217.052849 
L 161.658332 216.757412 
L 161.906681 216.630796 
L 197.793147 212.523781 
L 217.909435 210.221408 
L 218.03361 138.67101 
L 253.920075 134.563996 
L 265.840839 133.075894 
L 265.965013 180.362595 
L 267.082585 180.010399 
L 267.579283 179.800828 
L 268.696855 179.448632 
L 269.193553 179.23906 
L 270.4353 178.859212 
L 270.931998 178.649641 
L 272.04957 178.297445 
L 272.422094 178.163552 
L 273.291316 177.86957 
L 273.66384 177.735678 
L 274.533062 177.44024 
L 274.905586 177.307803 
L 275.898983 176.984714 
L 276.395681 176.773687 
L 277.513253 176.422946 
L 278.009951 176.213375 
L 279.251698 175.832072 
L 279.748396 175.622501 
L 280.865968 175.270304 
L 281.362666 175.060733 
L 282.604412 174.680885 
L 283.101111 174.471314 
L 284.218683 174.119118 
L 284.591206 173.985225 
L 285.460429 173.691243 
L 285.832953 173.55735 
L 286.702175 173.261913 
L 287.074699 173.129476 
L 288.068096 172.804931 
L 288.564794 172.59536 
L 289.682366 172.244619 
L 290.179064 172.033592 
L 291.420811 171.653745 
L 291.917509 171.444173 
L 293.035081 171.091977 
L 293.531779 170.882406 
L 294.773525 170.502558 
L 295.270224 170.292987 
L 296.387795 169.94079 
L 296.760319 169.806898 
L 297.629542 169.512916 
L 298.002065 169.379023 
L 298.871288 169.083586 
L 299.243812 168.951148 
L 300.237209 168.626604 
L 300.733907 168.417033 
L 301.851479 168.066292 
L 302.348177 167.855265 
L 303.589923 167.475417 
L 304.086622 167.265846 
L 305.204193 166.91365 
L 305.700892 166.704079 
L 306.942638 166.324231 
L 307.439337 166.114659 
L 308.556908 165.762463 
L 308.929432 165.62857 
L 309.798654 165.334589 
L 310.171178 165.200696 
L 311.040401 164.905259 
L 311.412924 164.772821 
L 312.406321 164.448277 
L 312.90302 164.238705 
L 314.020591 163.886509 
L 314.51729 163.676938 
L 315.759036 163.29709 
L 316.255735 163.087519 
L 317.373306 162.735323 
L 317.870005 162.525751 
L 319.111751 162.145903 
L 319.608449 161.936332 
L 320.726021 161.584136 
L 321.098545 161.450243 
L 321.967767 161.154806 
L 322.340291 161.022369 
L 323.209513 160.726931 
L 323.582037 160.594494 
L 324.575434 160.26995 
L 325.072133 160.060378 
L 326.189704 159.708182 
L 326.686403 159.498611 
L 327.928149 159.118763 
L 328.424847 158.909192 
L 329.542419 158.556995 
L 330.039118 158.347424 
L 331.280864 157.967576 
L 331.777562 157.75655 
L 332.895134 157.405809 
L 333.267658 157.271916 
L 334.13688 156.976479 
L 334.509404 156.844041 
L 335.378626 156.548604 
L 335.75115 156.414711 
L 336.744547 156.091622 
L 337.241246 155.882051 
L 338.358817 155.529855 
L 338.855516 155.320284 
L 340.097262 154.940436 
L 340.59396 154.730864 
L 341.711532 154.378668 
L 342.20823 154.169097 
L 343.449977 153.789249 
L 343.946675 153.578222 
L 345.064247 153.227482 
L 345.43677 153.093589 
L 346.305993 152.798152 
L 346.678517 152.665714 
L 347.547739 152.370277 
L 347.920263 152.236384 
L 348.91366 151.913295 
L 349.410358 151.703724 
L 350.52793 151.351528 
L 351.024628 151.141956 
L 352.266375 150.762108 
L 352.763073 150.552537 
L 353.880645 150.200341 
L 354.377343 149.99077 
L 355.619089 149.609466 
L 356.115788 149.399895 
L 357.233359 149.049154 
L 357.730058 148.838128 
L 358.971804 148.45828 
L 359.468503 148.248709 
L 360.586074 147.896512 
L 360.958598 147.764075 
L 361.82782 147.468638 
L 362.200344 147.334745 
L 363.069567 147.040763 
L 363.44209 146.90687 
L 364.435487 146.583781 
L 364.932186 146.37421 
L 366.049757 146.022014 
L 366.546456 145.812442 
L 367.788202 145.431139 
L 368.284901 145.221568 
L 369.402472 144.870827 
L 369.899171 144.6598 
L 371.140917 144.279225 
L 371.637615 144.069654 
L 372.755187 143.717457 
L 373.127711 143.58502 
L 373.996933 143.289583 
L 374.369457 143.15569 
L 375.238679 142.861708 
L 375.611203 142.727815 
L 376.6046 142.404726 
L 377.101299 142.195155 
L 378.21887 141.842959 
L 378.343045 141.765825 
L 378.46722 58.229115 
L 378.715569 54.42627 
L 378.839743 54.219609 
L 378.963918 56.040987 
L 379.212267 54.138837 
L 379.336442 53.926355 
L 379.460616 54.468475 
L 379.584791 54.346953 
L 379.708966 57.156518 
L 379.957315 54.012221 
L 380.08149 54.571078 
L 380.205664 55.976224 
L 380.454013 54.002761 
L 380.578188 54.265453 
L 380.578188 56.940397 
L 380.950712 54.931278 
L 381.323236 54.030413 
L 381.69576 55.208524 
L 382.068284 55.742639 
L 382.440807 54.293832 
L 382.813331 54.000578 
L 383.558379 54.332399 
L 383.930903 55.033153 
L 384.303427 54.176676 
L 384.675951 53.988935 
L 385.048474 54.052243 
L 385.793522 55.709894 
L 386.166046 54.06898 
L 386.53857 54.001306 
L 386.911094 54.149752 
L 387.283618 54.463381 
L 387.656141 56.166876 
L 388.401189 54.403712 
L 388.773713 54.512136 
L 389.146237 54.079167 
L 389.518761 55.653863 
L 389.891285 54.206511 
L 390.263808 54.34477 
L 390.636332 54.191957 
L 391.008856 55.096461 
L 391.753904 53.921989 
L 392.126428 54.11919 
L 392.498952 54.055882 
L 392.871476 56.164693 
L 393.243999 54.11919 
L 393.616523 54.167216 
L 393.989047 54.926912 
L 394.361571 54.53906 
L 394.734095 55.60147 
L 395.106619 56.028617 
L 395.851666 54.247261 
L 396.22419 54.605279 
L 396.596714 55.581095 
L 396.969238 54.098815 
L 397.341762 53.841217 
L 397.714286 54.074801 
L 397.714286 54.074801 
" style="fill:none;stroke:#1f77b4;stroke-linecap:square;stroke-width:1.5;"/>
   </g>
   <g id="patch_3">
    <path d="M 57.6 307.584 
L 57.6 41.472 
" style="fill:none;stroke:#000000;stroke-linecap:square;stroke-linejoin:miter;stroke-width:0.8;"/>
   </g>
   <g id="patch_4">
    <path d="M 414.72 307.584 
L 414.72 41.472 
" style="fill:none;stroke:#000000;stroke-linecap:square;stroke-linejoin:miter;stroke-width:0.8;"/>
   </g>
   <g id="patch_5">
    <path d="M 57.6 307.584 
L 414.72 307.584 
" style="fill:none;stroke:#000000;stroke-linecap:square;stroke-linejoin:miter;stroke-width:0.8;"/>
   </g>
   <g id="patch_6">
    <path d="M 57.6 41.472 
L 414.72 41.472 
" style="fill:none;stroke:#000000;stroke-linecap:square;stroke-linejoin:miter;stroke-width:0.8;"/>
   </g>
   <g id="legend_1">
    <g id="patch_7">
     <path d="M 64.6 64.150125 
L 166.410937 64.150125 
Q 168.410937 64.150125 168.410937 62.150125 
L 168.410937 48.472 
Q 168.410937 46.472 166.410937 46.472 
L 64.6 46.472 
Q 62.6 46.472 62.6 48.472 
L 62.6 62.150125 
Q 62.6 64.150125 64.6 64.150125 
z
" style="fill:#ffffff;opacity:0.8;stroke:#cccccc;stroke-linejoin:miter;"/>
    </g>
    <g id="line2d_16">
     <path d="M 66.6 54.570438 
L 86.6 54.570438 
" style="fill:none;stroke:#1f77b4;stroke-linecap:square;stroke-width:1.5;"/>
    </g>
    <g id="line2d_17"/>
    <g id="text_18">
     <text style="font-family:DejaVu Sans;font-size:10px;font-style:normal;font-weight:normal;text-anchor:start;" transform="rotate(-0, 94.6, 58.070438)" x="94.6" y="58.070438">peak-memory</text>
    </g>
   </g>
  </g>
 </g>
 <defs>
  <clipPath id="p30da35e07d">
   <rect height="266.112" width="357.12" x="57.6" y="41.472"/>
  </clipPath>
 </defs>
</svg>
